<?xml version="1.0" encoding="utf-8"?>
<!-- Generator: Adobe Illustrator 23.0.1, SVG Export Plug-In . SVG Version: 6.00 Build 0)  -->
<svg version="1.1" id="Layer_1" xmlns="http://www.w3.org/2000/svg" xmlns:xlink="http://www.w3.org/1999/xlink" x="0px" y="0px"
	 viewBox="0 0 512 512" style="enable-background:new 0 0 512 512;" xml:space="preserve">
<style type="text/css">
	.st0{fill:#010101;}
</style>
<title>01</title>
<g>
	<path class="st0" d="M495.1,266.9C495.1,266.9,495.1,266.9,495.1,266.9C495.1,266.9,495.1,266.9,495.1,266.9L495.1,266.9z"/>
	<path class="st0" d="M506,256c0-6-4.9-10.9-10.9-10.9h-0.2c0,0-0.1,0-0.1,0c-5.9,0.1-10.7,4.9-10.7,10.9c0.1,6,5,10.9,11,10.9
		C501.1,266.9,506,262,506,256z"/>
	<path class="st0" d="M451.7,266.9C451.7,266.9,451.6,266.9,451.7,266.9C451.6,266.9,451.6,266.9,451.7,266.9L451.7,266.9z"/>
	<path class="st0" d="M451.6,245.1h-0.2c0,0-0.1,0-0.1,0c-5.9,0.1-10.7,4.9-10.7,10.9c0.1,6,5,10.9,11,10.9c6,0,10.8-4.9,10.8-10.9
		C462.5,250,457.6,245.1,451.6,245.1z"/>
	<path class="st0" d="M408.2,245.1H408c0,0-0.1,0-0.1,0c-5.9,0.1-10.7,4.9-10.7,10.9c0.1,6,5,10.9,11,10.9h0c0,0,0,0,0,0
		c6,0,10.9-4.9,10.9-10.9C419.1,250,414.2,245.1,408.2,245.1z"/>
	<polygon class="st0" points="364.7,266.9 364.7,266.9 364.7,266.9 	"/>
	<path class="st0" d="M364.7,245.1h-0.2c0,0-0.1,0-0.1,0c-5.9,0.1-10.7,4.9-10.7,10.9c0.1,6,5,10.9,11,10.9c6,0,10.8-4.9,10.8-10.9
		C375.6,250,370.7,245.1,364.7,245.1z"/>
	<path class="st0" d="M321.3,266.9C321.3,266.9,321.2,266.9,321.3,266.9C321.2,266.9,321.2,266.9,321.3,266.9L321.3,266.9z"/>
	<path class="st0" d="M321.2,245.1H321c0,0,0,0-0.1,0c-5.9,0.1-10.7,4.9-10.7,10.9c0.1,6,5,10.9,11,10.9c6,0,10.8-4.9,10.8-10.9
		C332.1,250,327.2,245.1,321.2,245.1z"/>
	<path class="st0" d="M277.8,245.1h-0.2c0,0-0.1,0-0.1,0c-6,0-10.7,4.9-10.7,10.9c0.1,6,5,10.9,11,10.9c6,0,10.8-4.9,10.8-10.9
		C288.6,250,283.8,245.1,277.8,245.1z"/>
	<polygon class="st0" points="277.8,266.9 277.8,266.9 277.8,266.9 	"/>
	<path class="st0" d="M234.3,266.9c6,0,10.8-4.9,10.8-10.9c0-6-4.9-10.9-10.9-10.9h-0.2c0,0-0.1,0-0.1,0
		c-5.9,0.1-10.7,4.9-10.7,10.9C223.4,262,228.3,266.9,234.3,266.9z"/>
	<path class="st0" d="M234.3,266.9C234.3,266.9,234.3,266.9,234.3,266.9C234.3,266.9,234.3,266.9,234.3,266.9L234.3,266.9z"/>
	<path class="st0" d="M451.7,223.4C451.7,223.4,451.7,223.4,451.7,223.4C451.6,223.4,451.6,223.4,451.7,223.4L451.7,223.4z"/>
	<path class="st0" d="M451.6,201.7h-0.2c0,0-0.1,0-0.1,0c-5.9,0.1-10.7,4.9-10.7,10.9c0.1,6,5,10.9,11,10.9c6,0,10.9-4.9,10.9-10.9
		C462.5,206.5,457.6,201.7,451.6,201.7z"/>
	<path class="st0" d="M408.2,223.4L408.2,223.4c6,0,10.9-4.9,10.9-10.9s-4.9-10.9-10.9-10.9H408c0,0-0.1,0-0.1,0
		c-5.9,0.1-10.7,4.9-10.7,10.9C397.3,218.6,402.2,223.4,408.2,223.4z"/>
	<polygon class="st0" points="364.7,223.4 364.7,223.4 364.7,223.4 	"/>
	<path class="st0" d="M364.7,201.7h-0.2c0,0-0.1,0-0.1,0c-5.9,0.1-10.7,4.9-10.7,10.9c0.1,6,5,10.9,11,10.9c6,0,10.9-4.9,10.9-10.9
		C375.6,206.5,370.7,201.7,364.7,201.7z"/>
	<path class="st0" d="M321.2,201.7H321c0,0,0,0-0.1,0c-5.9,0.1-10.7,4.9-10.7,10.9c0.1,6,5,10.9,11,10.9c6,0,10.9-4.9,10.9-10.9
		C332.1,206.5,327.2,201.7,321.2,201.7z"/>
	<path class="st0" d="M321.3,223.4C321.3,223.4,321.2,223.4,321.3,223.4C321.2,223.4,321.2,223.4,321.3,223.4L321.3,223.4z"/>
	<polygon class="st0" points="277.8,223.4 277.8,223.4 277.8,223.4 	"/>
	<path class="st0" d="M277.8,201.7h-0.2c0,0-0.1,0-0.1,0c-6,0-10.7,4.9-10.7,10.9c0.1,6,5,10.9,11,10.9c6,0,10.9-4.9,10.9-10.9
		C288.6,206.5,283.8,201.7,277.8,201.7z"/>
	<path class="st0" d="M408.2,179.9L408.2,179.9c6,0,10.9-4.9,10.9-10.9c0-6-4.9-10.9-10.9-10.9H408c0,0-0.1,0-0.1,0
		c-5.9,0.1-10.7,4.9-10.7,10.9C397.3,175.1,402.2,179.9,408.2,179.9z"/>
	<path class="st0" d="M364.7,158.2h-0.2c0,0-0.1,0-0.1,0c-5.9,0.1-10.7,4.9-10.7,10.9c0.1,6,5,10.9,11,10.9c6,0,10.9-4.9,10.9-10.9
		C375.6,163.1,370.7,158.2,364.7,158.2z"/>
	<polygon class="st0" points="364.7,179.9 364.7,179.9 364.7,179.9 	"/>
	<path class="st0" d="M321.2,158.2H321c0,0,0,0-0.1,0c-5.9,0.1-10.7,4.9-10.7,10.9c0.1,6,5,10.9,11,10.9c6,0,10.8-4.9,10.8-10.9
		C332.1,163.1,327.2,158.2,321.2,158.2z"/>
	<path class="st0" d="M321.3,179.9C321.3,179.9,321.2,179.9,321.3,179.9C321.2,179.9,321.2,179.9,321.3,179.9L321.3,179.9z"/>
	<path class="st0" d="M277.8,158.2h-0.2c0,0-0.1,0-0.1,0c-6,0-10.7,4.9-10.7,10.9c0.1,6,5,10.9,11,10.9c6,0,10.9-4.9,10.9-10.9
		C288.6,163.1,283.8,158.2,277.8,158.2z"/>
	<polygon class="st0" points="277.8,179.9 277.8,179.9 277.8,179.9 	"/>
	<path class="st0" d="M364.7,136.5C364.7,136.5,364.7,136.5,364.7,136.5C364.7,136.5,364.7,136.5,364.7,136.5L364.7,136.5z"/>
	<path class="st0" d="M364.7,136.5c5.7-0.2,10.4-4.8,10.5-10.5c0.2-6-4.5-11-10.5-11.2h-0.2c0,0-0.1,0-0.1,0
		c-5.9,0-10.7,4.9-10.7,10.9C353.8,131.6,358.7,136.5,364.7,136.5z"/>
	<path class="st0" d="M321.2,136.5c5.7-0.2,10.3-4.8,10.5-10.5c0.2-6-4.5-11-10.5-11.2H321c0,0,0,0-0.1,0c-5.9,0-10.7,4.9-10.7,10.9
		C310.3,131.6,315.2,136.4,321.2,136.5z"/>
	<path class="st0" d="M321.3,136.5C321.3,136.5,321.2,136.5,321.3,136.5C321.2,136.5,321.2,136.5,321.3,136.5L321.3,136.5z"/>
	<path class="st0" d="M277.8,136.5C277.8,136.5,277.8,136.5,277.8,136.5C277.8,136.5,277.8,136.5,277.8,136.5L277.8,136.5z"/>
	<path class="st0" d="M277.8,136.5c5.7-0.2,10.4-4.8,10.5-10.5c0.2-6-4.5-11-10.5-11.2h-0.2c0,0-0.1,0-0.1,0
		c-5.9,0-10.7,4.9-10.7,10.9C266.9,131.6,271.8,136.5,277.8,136.5z"/>
	<path class="st0" d="M321.3,93L321.3,93c5.7-0.2,10.3-4.8,10.5-10.5c0.2-6-4.5-11-10.5-11.2H321c0,0,0,0-0.1,0
		c-5.9,0.1-10.7,4.9-10.7,10.9C310.3,88.2,315.2,93,321.3,93z"/>
	<path class="st0" d="M277.8,93c5.7-0.2,10.4-4.8,10.5-10.5c0.2-6-4.5-11-10.5-11.2h-0.2c0,0-0.1,0-0.1,0c-5.9,0-10.7,4.9-10.7,10.9
		C266.9,88.2,271.8,93,277.8,93z"/>
	<path class="st0" d="M277.8,93C277.8,93,277.8,93,277.8,93C277.8,93,277.8,93,277.8,93L277.8,93z"/>
	<path class="st0" d="M277.8,49.5C277.8,49.5,277.8,49.5,277.8,49.5C277.8,49.5,277.8,49.5,277.8,49.5L277.8,49.5z"/>
	<path class="st0" d="M277.8,49.5c5.7-0.2,10.4-4.8,10.5-10.5c0.2-6-4.5-11-10.5-11.2h-0.2c0,0-0.1,0-0.1,0
		c-5.9,0-10.7,4.9-10.7,10.9C266.9,44.7,271.8,49.5,277.8,49.5z"/>
	<path class="st0" d="M451.7,310.3C451.7,310.3,451.6,310.3,451.7,310.3C451.6,310.3,451.6,310.3,451.7,310.3L451.7,310.3z"/>
	<path class="st0" d="M451.6,288.6h-0.2c0,0-0.1,0-0.1,0c-5.9,0.1-10.7,4.9-10.7,10.9c0.1,6,5,10.9,11,10.9c6,0,10.8-4.9,10.8-10.9
		C462.5,293.5,457.6,288.6,451.6,288.6z"/>
	<path class="st0" d="M408.2,288.6H408c0,0-0.1,0-0.1,0c-5.9,0.1-10.7,4.9-10.7,10.9c0.1,6,5,10.9,11,10.9h0c0,0,0,0,0,0
		c6,0,10.9-4.9,10.9-10.9C419.1,293.5,414.2,288.6,408.2,288.6z"/>
	<path class="st0" d="M364.7,288.6h-0.2c0,0-0.1,0-0.1,0c-5.9,0.1-10.7,4.9-10.7,10.9c0.1,6,5,10.9,11,10.9c6,0,10.8-4.9,10.8-10.9
		C375.6,293.5,370.7,288.6,364.7,288.6z"/>
	<polygon class="st0" points="364.7,310.3 364.7,310.3 364.7,310.3 	"/>
	<path class="st0" d="M321.3,310.3C321.3,310.3,321.2,310.3,321.3,310.3C321.2,310.3,321.2,310.3,321.3,310.3L321.3,310.3z"/>
	<path class="st0" d="M321.2,288.6H321c0,0,0,0-0.1,0c-5.9,0.1-10.7,4.9-10.7,10.9c0.1,6,5,10.9,11,10.9c6,0,10.8-4.9,10.8-10.9
		C332.1,293.5,327.2,288.6,321.2,288.6z"/>
	<path class="st0" d="M277.8,288.6h-0.2c0,0-0.1,0-0.1,0c-6,0-10.7,4.9-10.7,10.9c0.1,6,5,10.9,11,10.9c6,0,10.8-4.9,10.8-10.9
		C288.6,293.5,283.8,288.6,277.8,288.6z"/>
	<polygon class="st0" points="277.8,310.3 277.8,310.3 277.8,310.3 	"/>
	<path class="st0" d="M408.2,332.1H408c0,0-0.1,0-0.1,0c-5.9,0.1-10.7,4.9-10.7,10.9c0.1,6,5,10.9,11,10.9h0c6,0,10.9-4.9,10.9-10.9
		C419.1,336.9,414.2,332.1,408.2,332.1z"/>
	<path class="st0" d="M364.7,332.1h-0.2c0,0-0.1,0-0.1,0c-5.9,0.1-10.7,4.9-10.7,10.9c0.1,6,5,10.9,11,10.9c6,0,10.8-4.9,10.8-10.9
		C375.6,336.9,370.7,332.1,364.7,332.1z"/>
	<polygon class="st0" points="364.7,353.8 364.7,353.8 364.7,353.8 	"/>
	<path class="st0" d="M321.3,353.8C321.3,353.8,321.2,353.8,321.3,353.8C321.2,353.8,321.2,353.8,321.3,353.8L321.3,353.8z"/>
	<path class="st0" d="M321.2,332.1H321c0,0,0,0-0.1,0c-5.9,0.1-10.7,4.9-10.7,10.9c0.1,6,5,10.9,11,10.9c6,0,10.8-4.9,10.8-10.9
		C332.1,336.9,327.2,332.1,321.2,332.1z"/>
	<path class="st0" d="M277.8,332.1h-0.2c0,0-0.1,0-0.1,0c-6,0-10.7,4.9-10.7,10.9c0.1,6,5,10.9,11,10.9c6,0,10.8-4.9,10.8-10.9
		C288.6,336.9,283.8,332.1,277.8,332.1z"/>
	<polygon class="st0" points="277.8,353.8 277.8,353.8 277.8,353.8 	"/>
	<path class="st0" d="M364.7,397.3C364.7,397.3,364.7,397.3,364.7,397.3C364.7,397.3,364.7,397.3,364.7,397.3L364.7,397.3z"/>
	<path class="st0" d="M364.7,375.5h-0.2c0,0-0.1,0-0.1,0c-5.9,0.1-10.7,4.9-10.7,10.9c0.1,6,5,10.9,11,10.9
		c5.7-0.2,10.4-4.8,10.5-10.5C375.4,380.7,370.7,375.7,364.7,375.5z"/>
	<path class="st0" d="M321.2,375.5H321c0,0,0,0-0.1,0c-5.9,0.1-10.7,4.9-10.7,10.9c0.1,6,5,10.8,11,10.9c5.7-0.2,10.3-4.8,10.5-10.5
		C331.9,380.7,327.2,375.7,321.2,375.5z"/>
	<path class="st0" d="M321.3,397.3C321.3,397.3,321.2,397.3,321.3,397.3C321.2,397.3,321.2,397.3,321.3,397.3L321.3,397.3z"/>
	<path class="st0" d="M288.3,386.7c0.2-6-4.5-11-10.5-11.2h-0.2c0,0-0.1,0-0.1,0c-6,0-10.7,4.9-10.7,10.9c0.1,6,5,10.9,11,10.9
		C283.5,397.1,288.1,392.5,288.3,386.7z"/>
	<path class="st0" d="M277.8,397.3C277.8,397.3,277.8,397.3,277.8,397.3C277.8,397.3,277.8,397.3,277.8,397.3L277.8,397.3z"/>
	<path class="st0" d="M321.2,419H321c0,0-0.1,0-0.1,0c-5.9,0.1-10.7,4.9-10.7,10.9c0.1,6,5,10.9,11,10.9l0,0
		c5.7-0.2,10.4-4.8,10.5-10.5C331.9,424.2,327.2,419.2,321.2,419z"/>
	<path class="st0" d="M277.8,419h-0.2c0,0-0.1,0-0.1,0c-6,0.1-10.7,4.9-10.7,10.9c0.1,6,5,10.9,11,10.9l0,0
		c5.7-0.2,10.4-4.8,10.5-10.5C288.5,424.2,283.8,419.2,277.8,419z"/>
	<path class="st0" d="M277.8,462.5h-0.2c0,0-0.1,0-0.1,0c-6,0-10.7,4.9-10.7,10.9c0.1,6,5,10.9,11,10.9c5.7-0.2,10.4-4.8,10.5-10.5
		C288.5,467.7,283.8,462.7,277.8,462.5z"/>
	<path class="st0" d="M277.8,484.2C277.8,484.2,277.8,484.2,277.8,484.2C277.8,484.2,277.8,484.2,277.8,484.2L277.8,484.2z"/>
	<path class="st0" d="M190.8,245.1h-0.2c0,0-0.1,0-0.1,0c-5.9,0.1-10.7,4.9-10.7,10.9c0.1,6,5,10.9,11,10.9c6,0,10.9-4.9,10.9-10.9
		C201.7,250,196.8,245.1,190.8,245.1z"/>
	<polygon class="st0" points="190.9,266.9 190.8,266.9 190.8,266.9 	"/>
	<path class="st0" d="M147.4,266.9c6,0,10.8-4.9,10.8-10.9c0-6-4.9-10.9-10.9-10.9h-0.2c0,0-0.1,0-0.1,0
		c-5.9,0.1-10.7,4.9-10.7,10.9C136.5,262,141.3,266.9,147.4,266.9z"/>
	<path class="st0" d="M147.4,266.9C147.4,266.9,147.4,266.9,147.4,266.9C147.4,266.9,147.4,266.9,147.4,266.9L147.4,266.9z"/>
	<path class="st0" d="M103.9,266.9c6,0,10.8-4.9,10.8-10.9c0-6-4.9-10.9-10.9-10.9h-0.2c0,0-0.1,0-0.1,0
		c-5.9,0.1-10.7,4.9-10.7,10.9C93,262,97.9,266.9,103.9,266.9z"/>
	<path class="st0" d="M103.9,266.9C103.9,266.9,103.9,266.9,103.9,266.9C103.9,266.9,103.9,266.9,103.9,266.9L103.9,266.9z"/>
	<path class="st0" d="M60.4,266.9c6,0,10.8-4.9,10.8-10.9c0-6-4.9-10.9-10.9-10.9h-0.2c0,0-0.1,0-0.1,0c-5.9,0.1-10.7,4.9-10.7,10.9
		C49.5,262,54.4,266.9,60.4,266.9z"/>
	<path class="st0" d="M60.4,266.9C60.4,266.9,60.4,266.9,60.4,266.9C60.4,266.9,60.4,266.9,60.4,266.9L60.4,266.9z"/>
	<path class="st0" d="M17,266.9c6,0,10.9-4.9,10.9-10.9c0-6-4.9-10.9-10.9-10.9h-0.2c0,0-0.1,0-0.1,0C10.7,245.2,5.9,250.1,6,256
		C6.1,262,11,266.9,17,266.9z"/>
	<path class="st0" d="M234.3,288.6h-0.2c0,0-0.1,0-0.1,0c-5.9,0.1-10.7,4.9-10.7,10.9c0.1,6,5,10.9,11,10.9c6,0,10.9-4.9,10.9-10.9
		C245.2,293.5,240.3,288.6,234.3,288.6z"/>
	<polygon class="st0" points="234.3,310.3 234.3,310.3 234.3,310.3 	"/>
	<path class="st0" d="M190.8,288.6h-0.2c0,0-0.1,0-0.1,0c-5.9,0.1-10.7,4.9-10.7,10.9c0.1,6,5,10.9,11,10.9c6,0,10.9-4.9,10.9-10.9
		C201.7,293.5,196.8,288.6,190.8,288.6z"/>
	<polygon class="st0" points="190.9,310.3 190.8,310.3 190.8,310.3 	"/>
	<polygon class="st0" points="147.4,310.3 147.4,310.3 147.4,310.3 	"/>
	<path class="st0" d="M147.4,288.6h-0.2c0,0-0.1,0-0.1,0c-5.9,0.1-10.7,4.9-10.7,10.9c0.1,6,5,10.9,11,10.9c6,0,10.9-4.9,10.9-10.9
		C158.2,293.5,153.4,288.6,147.4,288.6z"/>
	<path class="st0" d="M103.9,288.6h-0.2c0,0-0.1,0-0.1,0c-5.9,0.1-10.7,4.9-10.7,10.9c0.1,6,5,10.9,11,10.9c0,0,0,0,0,0
		c6,0,10.9-4.9,10.9-10.9C114.8,293.5,109.9,288.6,103.9,288.6z"/>
	<path class="st0" d="M60.4,288.6h-0.2c0,0-0.1,0-0.1,0c-5.9,0.1-10.7,4.9-10.7,10.9c0.1,6,5,10.9,11,10.9c0,0,0,0,0,0
		c6,0,10.9-4.9,10.9-10.9C71.3,293.5,66.4,288.6,60.4,288.6z"/>
	<path class="st0" d="M17,288.6h-0.2c0,0-0.1,0-0.1,0c-5.9,0.1-10.7,4.9-10.7,10.9c0.1,6,5,10.9,11,10.9c0,0,0,0,0,0
		c6,0,10.9-4.9,10.9-10.9C27.9,293.5,23,288.6,17,288.6z"/>
	<path class="st0" d="M234.3,223.4C234.3,223.4,234.3,223.4,234.3,223.4C234.3,223.4,234.3,223.4,234.3,223.4L234.3,223.4z"/>
	<path class="st0" d="M234.3,223.4c6,0,10.9-4.9,10.9-10.9c0-6-4.9-10.9-10.9-10.9h-0.2c0,0-0.1,0-0.1,0
		c-5.9,0.1-10.7,4.9-10.7,10.9C223.4,218.5,228.3,223.4,234.3,223.4z"/>
	<path class="st0" d="M190.9,223.4C190.8,223.4,190.8,223.4,190.9,223.4C190.8,223.4,190.8,223.4,190.9,223.4L190.9,223.4z"/>
	<path class="st0" d="M190.8,223.4c6,0,10.9-4.9,10.9-10.9c0-6-4.9-10.9-10.9-10.9h-0.2c0,0-0.1,0-0.1,0
		c-5.9,0.1-10.7,4.9-10.7,10.9C179.9,218.5,184.8,223.4,190.8,223.4z"/>
	<path class="st0" d="M147.4,223.4c6,0,10.9-4.9,10.9-10.9c0-6-4.9-10.9-10.9-10.9h-0.2c0,0-0.1,0-0.1,0
		c-5.9,0.1-10.7,4.9-10.7,10.9C136.5,218.5,141.3,223.4,147.4,223.4z"/>
	<path class="st0" d="M147.4,223.4C147.4,223.4,147.4,223.4,147.4,223.4C147.4,223.4,147.4,223.4,147.4,223.4L147.4,223.4z"/>
	<path class="st0" d="M103.9,223.4C103.9,223.4,103.9,223.4,103.9,223.4C103.9,223.4,103.9,223.4,103.9,223.4L103.9,223.4z"/>
	<path class="st0" d="M103.9,223.4c6,0,10.9-4.9,10.9-10.9c0-6-4.9-10.9-10.9-10.9h-0.2c0,0-0.1,0-0.1,0
		c-5.9,0.1-10.7,4.9-10.7,10.9C93,218.5,97.9,223.4,103.9,223.4z"/>
	<path class="st0" d="M60.4,223.4C60.4,223.4,60.4,223.4,60.4,223.4C60.4,223.4,60.4,223.4,60.4,223.4L60.4,223.4z"/>
	<path class="st0" d="M60.4,223.4c6,0,10.9-4.9,10.9-10.9c0-6-4.9-10.9-10.9-10.9h-0.2c0,0-0.1,0-0.1,0c-5.9,0.1-10.7,4.9-10.7,10.9
		C49.5,218.5,54.4,223.4,60.4,223.4z"/>
	<path class="st0" d="M17,223.4c6,0,10.9-4.9,10.9-10.9S23,201.7,17,201.7h-0.2c0,0-0.1,0-0.1,0c-5.9,0.1-10.7,4.9-10.7,10.9
		C6.1,218.6,11,223.4,17,223.4z"/>
</g>
</svg>
