<?xml version="1.0" encoding="utf-8"?>
<!-- Generator: Adobe Illustrator 23.0.1, SVG Export Plug-In . SVG Version: 6.00 Build 0)  -->
<svg version="1.1" id="Layer_1" xmlns="http://www.w3.org/2000/svg" xmlns:xlink="http://www.w3.org/1999/xlink" x="0px" y="0px"
	 viewBox="0 0 512 512" style="enable-background:new 0 0 512 512;" xml:space="preserve">
<style type="text/css">
	.st0{fill:#010101;}
</style>
<title>01</title>
<g>
	<path class="st0" d="M256,6C118.2,6,6,118.2,6,256s112.2,250,250,250s250-112.2,250-250S393.8,6,256,6z M256,484.3
		C130.1,484.3,27.7,381.9,27.7,256S130.1,27.7,256,27.7S484.3,130.1,484.3,256S381.9,484.3,256,484.3z"/>
	<path class="st0" d="M279.1,89.8c-12.7-12.7-33.4-12.7-46.1,0L112.5,210.3c-19.3,19.3-19.3,50.5,0,69.7c18.6,18.6,51.1,18.6,69.7,0
		l19.5-19.5v125.9c0,30,24.3,54.3,54.3,54.4c30,0,54.3-24.3,54.4-54.4V260.5l19.5,19.5c18.6,18.6,51.1,18.6,69.7,0
		c19.3-19.3,19.3-50.5,0-69.7L279.1,89.8z M384.2,264.6c-10.4,10.4-28.6,10.4-39,0l-38-38c-2-2-4.8-3.2-7.7-3.2
		c-6,0-10.9,4.9-10.8,10.9v152.2c0,0,0,0,0,0c0,18-14.6,32.6-32.6,32.6c-18,0-32.6-14.6-32.6-32.6V234.3c0-6-4.9-10.9-10.9-10.9
		c-2.9,0-5.6,1.2-7.7,3.2l-38,38c-10.4,10.4-28.6,10.4-39,0c0,0,0,0,0,0c-10.8-10.8-10.8-28.2,0-39l120.5-120.5c0,0,0,0,0,0
		c4.2-4.2,11.1-4.2,15.4,0l120.5,120.5c0,0,0,0,0,0C394.9,236.4,394.9,253.8,384.2,264.6z"/>
</g>
</svg>
